<mxfile host="app.diagrams.net" modified="2021-11-03T21:18:40.616Z" agent="5.0 (Windows NT 10.0; Win64; x64) AppleWebKit/537.36 (KHTML, like Gecko) Chrome/95.0.4638.69 Safari/537.36" etag="99_3erHMHwRFmHC_rheR" version="15.6.8" type="github">
  <diagram id="C5RBs43oDa-KdzZeNtuy" name="Page-1">
    <mxGraphModel dx="1422" dy="754" grid="1" gridSize="10" guides="1" tooltips="1" connect="1" arrows="1" fold="1" page="1" pageScale="1" pageWidth="827" pageHeight="1169" math="0" shadow="0">
      <root>
        <mxCell id="WIyWlLk6GJQsqaUBKTNV-0" />
        <mxCell id="WIyWlLk6GJQsqaUBKTNV-1" parent="WIyWlLk6GJQsqaUBKTNV-0" />
        <mxCell id="zkfFHV4jXpPFQw0GAbJ--0" value="Üniversite" style="swimlane;fontStyle=2;align=center;verticalAlign=top;childLayout=stackLayout;horizontal=1;startSize=26;horizontalStack=0;resizeParent=1;resizeLast=0;collapsible=1;marginBottom=0;rounded=0;shadow=0;strokeWidth=1;fillColor=#d5e8d4;strokeColor=#82b366;" parent="WIyWlLk6GJQsqaUBKTNV-1" vertex="1">
          <mxGeometry x="310" y="260" width="160" height="80" as="geometry">
            <mxRectangle x="220" y="120" width="160" height="26" as="alternateBounds" />
          </mxGeometry>
        </mxCell>
        <mxCell id="zkfFHV4jXpPFQw0GAbJ--4" value="" style="line;html=1;strokeWidth=1;align=left;verticalAlign=middle;spacingTop=-1;spacingLeft=3;spacingRight=3;rotatable=0;labelPosition=right;points=[];portConstraint=eastwest;" parent="zkfFHV4jXpPFQw0GAbJ--0" vertex="1">
          <mxGeometry y="26" width="160" height="8" as="geometry" />
        </mxCell>
        <mxCell id="zkfFHV4jXpPFQw0GAbJ--6" value="Departman" style="swimlane;fontStyle=0;align=center;verticalAlign=top;childLayout=stackLayout;horizontal=1;startSize=26;horizontalStack=0;resizeParent=1;resizeLast=0;collapsible=1;marginBottom=0;rounded=0;shadow=0;strokeWidth=1;fillColor=#dae8fc;strokeColor=#6c8ebf;" parent="WIyWlLk6GJQsqaUBKTNV-1" vertex="1">
          <mxGeometry x="110" y="267" width="110" height="64" as="geometry">
            <mxRectangle x="80" y="260" width="160" height="26" as="alternateBounds" />
          </mxGeometry>
        </mxCell>
        <mxCell id="zkfFHV4jXpPFQw0GAbJ--9" value="" style="line;html=1;strokeWidth=1;align=left;verticalAlign=middle;spacingTop=-1;spacingLeft=3;spacingRight=3;rotatable=0;labelPosition=right;points=[];portConstraint=eastwest;" parent="zkfFHV4jXpPFQw0GAbJ--6" vertex="1">
          <mxGeometry y="26" width="110" height="8" as="geometry" />
        </mxCell>
        <mxCell id="zkfFHV4jXpPFQw0GAbJ--13" value="Çalışma Ofisi" style="swimlane;fontStyle=0;align=center;verticalAlign=top;childLayout=stackLayout;horizontal=1;startSize=26;horizontalStack=0;resizeParent=1;resizeLast=0;collapsible=1;marginBottom=0;rounded=0;shadow=0;strokeWidth=1;fillColor=#dae8fc;strokeColor=#6c8ebf;" parent="WIyWlLk6GJQsqaUBKTNV-1" vertex="1">
          <mxGeometry x="310" y="150" width="160" height="60" as="geometry">
            <mxRectangle x="310" y="180" width="170" height="26" as="alternateBounds" />
          </mxGeometry>
        </mxCell>
        <mxCell id="zkfFHV4jXpPFQw0GAbJ--15" value="" style="line;html=1;strokeWidth=1;align=left;verticalAlign=middle;spacingTop=-1;spacingLeft=3;spacingRight=3;rotatable=0;labelPosition=right;points=[];portConstraint=eastwest;" parent="zkfFHV4jXpPFQw0GAbJ--13" vertex="1">
          <mxGeometry y="26" width="160" height="8" as="geometry" />
        </mxCell>
        <mxCell id="zkfFHV4jXpPFQw0GAbJ--17" value="Sınıflık" style="swimlane;fontStyle=0;align=center;verticalAlign=top;childLayout=stackLayout;horizontal=1;startSize=26;horizontalStack=0;resizeParent=1;resizeLast=0;collapsible=1;marginBottom=0;rounded=0;shadow=0;strokeWidth=1;fillColor=#dae8fc;strokeColor=#6c8ebf;" parent="WIyWlLk6GJQsqaUBKTNV-1" vertex="1">
          <mxGeometry x="559" y="260" width="111" height="70" as="geometry">
            <mxRectangle x="508" y="120" width="160" height="26" as="alternateBounds" />
          </mxGeometry>
        </mxCell>
        <mxCell id="zkfFHV4jXpPFQw0GAbJ--23" value="" style="line;html=1;strokeWidth=1;align=left;verticalAlign=middle;spacingTop=-1;spacingLeft=3;spacingRight=3;rotatable=0;labelPosition=right;points=[];portConstraint=eastwest;" parent="zkfFHV4jXpPFQw0GAbJ--17" vertex="1">
          <mxGeometry y="26" width="111" height="8" as="geometry" />
        </mxCell>
        <mxCell id="Uz2IyjZiA-glR8ln1gCU-0" value="Çalışan" style="swimlane;fontStyle=0;align=center;verticalAlign=top;childLayout=stackLayout;horizontal=1;startSize=26;horizontalStack=0;resizeParent=1;resizeLast=0;collapsible=1;marginBottom=0;rounded=0;shadow=0;strokeWidth=1;fillColor=#dae8fc;strokeColor=#6c8ebf;" vertex="1" parent="WIyWlLk6GJQsqaUBKTNV-1">
          <mxGeometry x="335" y="390" width="110" height="60" as="geometry">
            <mxRectangle x="480" y="460" width="160" height="26" as="alternateBounds" />
          </mxGeometry>
        </mxCell>
        <mxCell id="Uz2IyjZiA-glR8ln1gCU-3" value="" style="line;html=1;strokeWidth=1;align=left;verticalAlign=middle;spacingTop=-1;spacingLeft=3;spacingRight=3;rotatable=0;labelPosition=right;points=[];portConstraint=eastwest;" vertex="1" parent="Uz2IyjZiA-glR8ln1gCU-0">
          <mxGeometry y="26" width="110" height="8" as="geometry" />
        </mxCell>
        <mxCell id="Uz2IyjZiA-glR8ln1gCU-22" value="" style="endArrow=classic;html=1;rounded=0;entryX=0.5;entryY=1;entryDx=0;entryDy=0;" edge="1" parent="Uz2IyjZiA-glR8ln1gCU-0" target="Uz2IyjZiA-glR8ln1gCU-0">
          <mxGeometry width="50" height="50" relative="1" as="geometry">
            <mxPoint x="-5" y="90" as="sourcePoint" />
            <mxPoint x="65" y="70" as="targetPoint" />
            <Array as="points">
              <mxPoint x="-5" y="80" />
              <mxPoint x="55" y="80" />
            </Array>
          </mxGeometry>
        </mxCell>
        <mxCell id="Uz2IyjZiA-glR8ln1gCU-10" value="" style="endArrow=diamondThin;endFill=0;endSize=24;html=1;rounded=0;" edge="1" parent="WIyWlLk6GJQsqaUBKTNV-1">
          <mxGeometry width="160" relative="1" as="geometry">
            <mxPoint x="560" y="310" as="sourcePoint" />
            <mxPoint x="470" y="310" as="targetPoint" />
          </mxGeometry>
        </mxCell>
        <mxCell id="Uz2IyjZiA-glR8ln1gCU-12" value="" style="endArrow=diamondThin;endFill=0;endSize=24;html=1;rounded=0;" edge="1" parent="WIyWlLk6GJQsqaUBKTNV-1">
          <mxGeometry width="160" relative="1" as="geometry">
            <mxPoint x="389.5" y="210" as="sourcePoint" />
            <mxPoint x="389.5" y="260" as="targetPoint" />
          </mxGeometry>
        </mxCell>
        <mxCell id="Uz2IyjZiA-glR8ln1gCU-13" value="" style="endArrow=diamondThin;endFill=0;endSize=24;html=1;rounded=0;" edge="1" parent="WIyWlLk6GJQsqaUBKTNV-1">
          <mxGeometry width="160" relative="1" as="geometry">
            <mxPoint x="220" y="310" as="sourcePoint" />
            <mxPoint x="310" y="310" as="targetPoint" />
          </mxGeometry>
        </mxCell>
        <mxCell id="Uz2IyjZiA-glR8ln1gCU-14" value="Ofis" style="swimlane;fontStyle=0;align=center;verticalAlign=top;childLayout=stackLayout;horizontal=1;startSize=26;horizontalStack=0;resizeParent=1;resizeLast=0;collapsible=1;marginBottom=0;rounded=0;shadow=0;strokeWidth=1;fillColor=#ffe6cc;strokeColor=#d79b00;" vertex="1" parent="WIyWlLk6GJQsqaUBKTNV-1">
          <mxGeometry x="115" y="380" width="100" height="60" as="geometry">
            <mxRectangle x="480" y="460" width="160" height="26" as="alternateBounds" />
          </mxGeometry>
        </mxCell>
        <mxCell id="Uz2IyjZiA-glR8ln1gCU-15" value="" style="line;html=1;strokeWidth=1;align=left;verticalAlign=middle;spacingTop=-1;spacingLeft=3;spacingRight=3;rotatable=0;labelPosition=right;points=[];portConstraint=eastwest;" vertex="1" parent="Uz2IyjZiA-glR8ln1gCU-14">
          <mxGeometry y="26" width="100" height="8" as="geometry" />
        </mxCell>
        <mxCell id="Uz2IyjZiA-glR8ln1gCU-16" value="" style="endArrow=diamondThin;endFill=0;endSize=24;html=1;rounded=0;entryX=0.127;entryY=0.875;entryDx=0;entryDy=0;entryPerimeter=0;exitX=0.5;exitY=0;exitDx=0;exitDy=0;" edge="1" parent="WIyWlLk6GJQsqaUBKTNV-1" source="Uz2IyjZiA-glR8ln1gCU-14">
          <mxGeometry width="160" relative="1" as="geometry">
            <mxPoint x="165" y="370" as="sourcePoint" />
            <mxPoint x="164.50000000000003" y="330" as="targetPoint" />
          </mxGeometry>
        </mxCell>
        <mxCell id="Uz2IyjZiA-glR8ln1gCU-17" value="" style="endArrow=diamondThin;endFill=0;endSize=24;html=1;rounded=0;entryX=0.127;entryY=0.875;entryDx=0;entryDy=0;entryPerimeter=0;exitX=0.5;exitY=0;exitDx=0;exitDy=0;" edge="1" parent="WIyWlLk6GJQsqaUBKTNV-1">
          <mxGeometry width="160" relative="1" as="geometry">
            <mxPoint x="390" y="390" as="sourcePoint" />
            <mxPoint x="389.5" y="340" as="targetPoint" />
          </mxGeometry>
        </mxCell>
        <mxCell id="Uz2IyjZiA-glR8ln1gCU-18" value="Profesör" style="swimlane;fontStyle=0;align=center;verticalAlign=top;childLayout=stackLayout;horizontal=1;startSize=26;horizontalStack=0;resizeParent=1;resizeLast=0;collapsible=1;marginBottom=0;rounded=0;shadow=0;strokeWidth=1;fillColor=#f8cecc;strokeColor=#b85450;" vertex="1" parent="WIyWlLk6GJQsqaUBKTNV-1">
          <mxGeometry x="260" y="480" width="110" height="60" as="geometry">
            <mxRectangle x="480" y="460" width="160" height="26" as="alternateBounds" />
          </mxGeometry>
        </mxCell>
        <mxCell id="Uz2IyjZiA-glR8ln1gCU-19" value="" style="line;html=1;strokeWidth=1;align=left;verticalAlign=middle;spacingTop=-1;spacingLeft=3;spacingRight=3;rotatable=0;labelPosition=right;points=[];portConstraint=eastwest;" vertex="1" parent="Uz2IyjZiA-glR8ln1gCU-18">
          <mxGeometry y="26" width="110" height="8" as="geometry" />
        </mxCell>
        <mxCell id="Uz2IyjZiA-glR8ln1gCU-20" value="Memur" style="swimlane;fontStyle=0;align=center;verticalAlign=top;childLayout=stackLayout;horizontal=1;startSize=26;horizontalStack=0;resizeParent=1;resizeLast=0;collapsible=1;marginBottom=0;rounded=0;shadow=0;strokeWidth=1;fillColor=#f8cecc;strokeColor=#b85450;" vertex="1" parent="WIyWlLk6GJQsqaUBKTNV-1">
          <mxGeometry x="400" y="480" width="110" height="60" as="geometry">
            <mxRectangle x="480" y="460" width="160" height="26" as="alternateBounds" />
          </mxGeometry>
        </mxCell>
        <mxCell id="Uz2IyjZiA-glR8ln1gCU-21" value="" style="line;html=1;strokeWidth=1;align=left;verticalAlign=middle;spacingTop=-1;spacingLeft=3;spacingRight=3;rotatable=0;labelPosition=right;points=[];portConstraint=eastwest;" vertex="1" parent="Uz2IyjZiA-glR8ln1gCU-20">
          <mxGeometry y="26" width="110" height="8" as="geometry" />
        </mxCell>
        <mxCell id="Uz2IyjZiA-glR8ln1gCU-23" value="" style="endArrow=classic;html=1;rounded=0;edgeStyle=orthogonalEdgeStyle;exitX=0.445;exitY=-0.017;exitDx=0;exitDy=0;exitPerimeter=0;" edge="1" parent="WIyWlLk6GJQsqaUBKTNV-1" source="Uz2IyjZiA-glR8ln1gCU-20">
          <mxGeometry width="50" height="50" relative="1" as="geometry">
            <mxPoint x="450" y="470" as="sourcePoint" />
            <mxPoint x="390" y="450" as="targetPoint" />
            <Array as="points">
              <mxPoint x="449" y="470" />
              <mxPoint x="390" y="470" />
            </Array>
          </mxGeometry>
        </mxCell>
        <mxCell id="Uz2IyjZiA-glR8ln1gCU-26" value="" style="endArrow=none;endFill=0;html=1;align=left;verticalAlign=top;rounded=0;strokeColor=default;" edge="1" parent="WIyWlLk6GJQsqaUBKTNV-1">
          <mxGeometry x="-1" relative="1" as="geometry">
            <mxPoint x="215" y="431" as="sourcePoint" />
            <mxPoint x="335" y="431" as="targetPoint" />
          </mxGeometry>
        </mxCell>
        <mxCell id="Uz2IyjZiA-glR8ln1gCU-27" value="1" style="edgeLabel;resizable=0;html=1;align=left;verticalAlign=bottom;" connectable="0" vertex="1" parent="Uz2IyjZiA-glR8ln1gCU-26">
          <mxGeometry x="-1" relative="1" as="geometry" />
        </mxCell>
        <mxCell id="Uz2IyjZiA-glR8ln1gCU-28" style="edgeStyle=none;rounded=0;orthogonalLoop=1;jettySize=auto;html=1;entryX=0;entryY=0.5;entryDx=0;entryDy=0;endArrow=none;endFill=0;strokeColor=default;" edge="1" parent="WIyWlLk6GJQsqaUBKTNV-1" source="Uz2IyjZiA-glR8ln1gCU-0" target="Uz2IyjZiA-glR8ln1gCU-0">
          <mxGeometry relative="1" as="geometry" />
        </mxCell>
      </root>
    </mxGraphModel>
  </diagram>
</mxfile>
